<?xml version="1.0" encoding="iso-8859-1"?>
<!-- Uploaded to: SVG Repo, www.svgrepo.com, Generator: SVG Repo Mixer Tools -->
<svg version="1.1" id="Layer_1" xmlns="http://www.w3.org/2000/svg" xmlns:xlink="http://www.w3.org/1999/xlink" 
	 viewBox="0 0 501.999 501.999" xml:space="preserve">
<g>
	<path style="fill:#D7E6D8;" d="M435.311,83.105H66.687v331.452c0,42.77,34.672,77.442,77.442,77.442h213.74
		c42.77,0,77.442-34.672,77.442-77.442V83.105z"/>
	<rect x="95.185" y="42.216" style="fill:#4FC497;" width="87.974" height="40.889"/>
	<path style="fill:#4FC497;" d="M250.577,296.745c0,0-32.898,2.065-51.915-16.952c-19.017-19.017-16.952-51.915-16.952-51.915
		s32.898-2.065,51.915,16.952C252.642,263.847,250.577,296.745,250.577,296.745z"/>
	<path style="fill:#4FC497;" d="M251.421,296.745c0,0,32.898,2.065,51.915-16.952s16.952-51.915,16.952-51.915
		s-32.898-2.065-51.915,16.952S251.421,296.745,251.421,296.745z"/>
	<path style="fill:#4FC497;" d="M250.577,197.143c0,0-32.898,2.065-51.915-16.952c-19.017-19.017-16.952-51.915-16.952-51.915
		s32.898-2.065,51.915,16.952C252.642,164.245,250.577,197.143,250.577,197.143z"/>
	<path style="fill:#4FC497;" d="M251.421,197.143c0,0,32.898,2.065,51.915-16.952s16.952-51.915,16.952-51.915
		s-32.898-2.065-51.915,16.952S251.421,197.143,251.421,197.143z"/>
	<g>
		<path style="fill:#333333;" d="M95.186,20h87.974c5.523,0,10-4.477,10-10s-4.477-10-10-10H95.186c-5.523,0-10,4.477-10,10
			S89.663,20,95.186,20z"/>
		<path style="fill:#333333;" d="M445.312,10c0-5.523-4.477-10-10-10H315.741c-2.376,0-4.75,0.88-6.545,2.439l-43.368,37.542
			c-4.176,3.615-4.63,9.93-1.016,14.105c1.978,2.285,4.763,3.455,7.565,3.455c2.319,0,4.649-0.802,6.541-2.439L319.468,20h105.844
			v53.105H193.16v-30.89c0-5.523-4.477-10-10-10H95.186c-5.523,0-10,4.477-10,10v30.89H66.687c-5.523,0-10,4.477-10,10v331.452
			c0,48.216,39.227,87.442,87.442,87.442h213.74c48.216,0,87.442-39.227,87.442-87.442V84.344v-1.239V11.239
			c0-0.209-0.019-0.414-0.031-0.62C445.293,10.414,445.312,10.209,445.312,10z M105.186,52.216h67.974v20.89h-67.974V52.216z
			 M425.312,414.558c0,37.188-30.254,67.442-67.442,67.442H144.129c-37.188,0-67.442-30.254-67.442-67.442V93.105h18.499h87.974
			h242.152V414.558z"/>
		<path style="fill:#333333;" d="M171.73,127.65c-0.096,1.527-2.095,37.656,19.861,59.613c14.882,14.881,36.269,18.757,48.985,19.68
			v30.703c-21.968-21.832-57.97-19.842-59.493-19.747c-5.029,0.316-9.038,4.325-9.354,9.354
			c-0.096,1.527-2.095,37.656,19.861,59.612c14.882,14.882,36.27,18.757,48.986,19.68V394c0,5.523,4.477,10,10,10s10-4.477,10-10
			v-87.399c12.595-0.812,34.612-4.52,49.83-19.737c21.956-21.957,19.957-58.085,19.861-59.612c-0.316-5.029-4.325-9.038-9.354-9.354
			c-1.527-0.094-37.656-2.095-59.612,19.861c-0.25,0.25-0.48,0.51-0.724,0.764V207c12.595-0.812,34.612-4.52,49.83-19.737
			c21.956-21.957,19.957-58.085,19.861-59.612c-0.316-5.029-4.325-9.038-9.354-9.354c-1.525-0.094-37.654-2.096-59.612,19.861
			c-4.286,4.286-7.649,9.115-10.302,14.119c-2.653-5.004-6.016-9.833-10.302-14.119c-21.957-21.957-58.086-19.957-59.612-19.861
			C176.055,118.612,172.046,122.621,171.73,127.65z M205.734,272.722c-9.811-9.81-12.834-24.793-13.729-34.548
			c9.761,0.894,24.741,3.919,34.549,13.728c9.8,9.8,12.828,24.762,13.726,34.523C230.502,285.511,215.482,282.47,205.734,272.722z
			 M275.444,251.901c9.81-9.811,24.793-12.834,34.548-13.729c-0.894,9.761-3.919,24.741-13.728,34.549
			c-9.801,9.801-24.762,12.829-34.523,13.726C262.655,276.669,265.695,261.649,275.444,251.901z M275.444,152.299
			c9.81-9.811,24.793-12.834,34.548-13.729c-0.894,9.761-3.919,24.741-13.727,34.549c-9.809,9.809-24.787,12.833-34.548,13.728
			C262.61,177.086,265.635,162.107,275.444,152.299z M226.554,152.299c9.809,9.808,12.833,24.787,13.728,34.548
			c-9.761-0.895-24.741-3.92-34.548-13.727c-9.81-9.811-12.834-24.794-13.729-34.549
			C201.767,139.466,216.746,142.491,226.554,152.299z"/>
		<path style="fill:#333333;" d="M250.577,419.376c-5.523,0-10,4.477-10,10v22.475c0,5.523,4.477,10,10,10s10-4.477,10-10v-22.475
			C260.577,423.853,256.1,419.376,250.577,419.376z"/>
	</g>
</g>
</svg>